<svg width="166" height="134" viewBox="0 0 166 134" fill="none" xmlns="http://www.w3.org/2000/svg">
<path d="M12.5199 88.3666C12.5199 86.732 12.7955 84.3788 13.1107 82.7783C12.9395 79.5221 12.2444 78.7424 11.7214 77.763C11.616 77.4883 11.5471 77.1783 11.8936 76.624" stroke="#9B8C04" stroke-width="20" stroke-linecap="round"/>
<path d="M17.1118 100.579C17.4584 100.112 18.1514 99.1747 18.9875 98.4678C19.931 97.6702 20.6566 96.2767 22.3246 93.6616C23.1343 92.3923 23.788 91.5797 24.8319 91.0301C25.8415 90.4985 27.7462 91.1851 29.0082 91.6912C29.7065 92.7469 29.9152 93.9211 30.0196 96.1745C30.0551 98.0404 30.0551 101.373 30.0551 104.806" stroke="#9B8C04" stroke-width="20" stroke-linecap="round"/>
<path d="M40.9116 90.9487C41.2582 91.7285 41.8135 92.8229 42.613 94.2695C43.5477 95.9606 44.3854 97.2052 45.4658 98.1868C46.3764 99.0143 47.5879 99.6335 48.7006 100.223C49.5006 100.647 50.164 101.28 50.616 101.787C51.0229 102.244 50.9322 103.234 50.8289 104.172C50.6838 105.49 49.3373 105.899 47.8759 106.68C46.5789 107.373 45.5775 107.778 45.1244 108.129C44.1137 108.913 48.139 110.747 49.7788 111.652C50.9166 112.28 52.523 112.555 54.1962 112.088C55.3044 111.778 56.287 111.461 56.8778 111.11C59.4554 109.578 57.6794 102.614 58.5448 102.496C61.2093 102.135 65.5652 118.873 65.5652 105.436C65.5652 103.837 70.748 101.987 72.1885 102.493C73.3615 102.905 74.1717 104.565 75.1445 105.35C75.4282 105.579 75.6998 105.895 75.8418 106.403C76.4786 108.684 75.0819 110.202 74.4556 111.142C73.679 112.309 72.5767 112.398 72.2281 112.67C71.3852 113.329 74.1633 114.974 75.7698 115.646C76.4589 115.934 77.3011 116.078 78.1006 115.962C79.1325 115.812 79.8751 114.439 81.1632 113.498C82.3838 112.607 83.0775 110.841 83.4637 109.042C83.8853 107.078 83.5681 105.434 83.7758 104.848C84.2787 103.43 86.3467 103.241 89.021 103.239C91.2406 103.237 94.5511 103.321 96.0208 102.927C97.5214 102.526 99.4988 102.536 101.514 102.418C105.047 102.21 110.63 102.532 112.129 102.73C113.784 102.949 115.432 103.551 117.208 104.098C118.45 104.48 118.847 106.44 119.924 107.62C120.156 107.874 120.308 108.088 120.104 108.285C118.726 109.614 116.976 109.032 115.896 109.305C114.905 109.555 112.605 110.047 109.431 110.168C106.683 110.272 103.198 110.127 101.91 110.284C100.731 110.428 99.8579 111.301 98.8454 111.654C98.5246 111.766 99.5719 110.991 99.6439 110.911C100.773 109.659 97.144 112.24 96.168 112.749C94.9186 113.4 93.595 113.649 92.9979 114.042C90.9406 115.393 98.6637 112.79 100.16 112.166C101.637 111.551 103.186 111.146 104.579 110.561C105.98 109.973 107.432 109.582 110.279 108.06C112.072 107.102 114.041 106.529 116.682 105.436C118.918 104.51 122.726 103.945 125.069 103.359C128.446 102.515 130.525 101.602 134.493 100.269C136.544 99.5797 138.254 99.6382 139.652 99.4433C139.932 99.4043 140.208 99.4034 140.108 99.3646C139.551 99.1467 138.41 99.1685 135.817 99.556C133.832 99.8527 130.538 100.719 127.663 101.273C122.466 102.275 119.206 102.456 117.781 102.495C116.178 102.539 115.373 103.238 114.921 103.201C114.718 103.184 114.676 102.776 114.778 102.539C115.396 101.105 118.141 100.037 120.477 98.976C121.824 98.3642 123.018 97.6044 124.516 96.8623C125.615 96.3179 126.984 95.9605 128.136 95.6082C129.116 95.3082 129.84 94.3964 131.023 93.7693C132.094 93.2013 133.318 92.6725 134.468 92.3203C135.765 91.9225 137.281 91.7331 139.232 91.4196C141.182 91.1061 142.713 90.7937 144.243 90.4802C146.17 90.0853 148.416 90.0892 150.122 89.8144C150.708 89.72 151.539 89.7745 151.242 90.0457C147.249 91.806 144.608 93.0577 142.8 93.8785C142.095 94.2343 141.819 94.4668 141.953 94.2367" stroke="#9B8C04" stroke-width="20" stroke-linecap="round"/>
<path d="M149.811 78.9065C149.976 78.6504 150.267 78.2765 150.641 78.0886C151.098 77.858 151.472 77.9483 151.794 77.7154C151.909 77.5989 152.073 77.4138 152.179 77.2836C152.284 77.1535 152.325 77.0841 152.368 76.9424" stroke="#9B8C04" stroke-width="20" stroke-linecap="round"/>
<path d="M19.5042 47.3405C19.3861 47.2076 19.2071 46.807 18.91 46.2372C18.77 45.9686 18.4948 45.8667 18.314 45.9312C17.2586 46.3073 16.587 49.6035 16.0152 51.2625C15.5453 52.6257 16.4617 53.912 17.412 57.3266C17.7022 58.3692 18.0116 58.8809 18.2496 59.0843C18.6271 59.4067 18.4912 57.7474 18.4894 54.6177C18.4879 51.9498 18.9601 47.1029 19.2313 44.405C19.5446 41.2876 20.2755 39.569 21.0496 37.2567C22.022 34.3519 23.4379 32.6512 24.5099 31.3073C25.5786 29.9676 26.2441 28.7534 26.5412 28.3507C26.6794 28.1634 26.9564 28.2138 27.1077 28.3467C27.2589 28.4796 27.3179 28.7453 27.6141 28.9487C29.8258 30.467 33.1595 29.2889 34.5322 28.7866C36.0202 28.2421 37.0395 27.5454 39.6874 24.6683C40.9731 23.2713 42.8238 22.8463 45.1754 22.21C48.5326 21.3018 51.3534 21.6383 53.3498 21.002C56.2199 20.0874 58.0934 20.4303 59.8848 20.0276C61.3607 19.6959 62.9255 19.4236 64.0637 19.3219C64.3046 19.3004 64.5398 19.2223 67.4964 19.188C70.4529 19.1538 76.1226 19.1538 79.2206 19.1206C82.6739 19.0836 85.1641 18.9525 88.5037 18.9857C90.5616 19.0062 92.0974 19.488 93.7689 19.7236C96.1442 20.0583 98.8874 20.1605 100.662 20.3276C102.123 20.4651 105.087 20.5631 107.697 20.8974C109.376 21.1123 110.656 21.0322 112.048 21.1329C115.264 21.3656 117.754 21.2336 118.439 21.3675C120.352 21.7417 123.002 21.7027 124.433 21.9382C125.979 22.1926 127.057 22.3751 128.282 22.5423C129.195 22.6668 130.044 22.6429 130.58 22.81C131.632 23.1381 132.784 25.6488 134.307 27.2706C135.533 28.5756 138.98 29.148 140.691 29.6221C141.96 29.9738 143.519 30.4245 144.897 31.2972C146.672 32.4215 148.53 34.2417 150.235 37.295C151.647 39.8218 152.467 41.6911 153.697 42.7742C153.915 42.9657 154.085 43.2413 154.117 43.4779C154.256 44.5013 152.485 45.456 151.705 46.3308C150.897 47.2364 149.918 48.4076 147.898 50.3826C142.528 55.6316 141.088 55.2569 140.281 55.7945C139.846 56.084 139.001 56.6642 138.225 57.4021C137.991 57.624 138.275 57.7414 138.662 57.7756C140.419 57.9308 141.614 57.6085 142.572 57.5088C143.518 57.4103 144.596 56.4005 145.437 56.2666C146.203 56.1447 143.83 56.1327 143.472 56.2314C142.196 56.5831 142.577 59.0138 142.099 60.9899C141.937 61.6604 141.681 62.1023 141.355 62.5381C140.287 63.9674 136.929 64.7115 134.588 66.0937C132.421 67.373 131.424 67.9409 129.666 68.712C128.033 69.4289 126.713 70.6227 125.666 71.13C124.649 71.622 123.134 72.2374 121.909 72.7729C119.756 73.7141 117.232 74.1823 115.2 74.9866C113.181 75.7861 112.453 76.4654 109.388 77.9039C107.915 78.5954 107.023 78.8129 104.584 79.6183C102.966 80.1526 100.18 79.9565 97.9595 80.1236C95.3339 80.3212 94.0231 80.4921 92.6486 80.6269C91.4552 80.7441 90.143 80.9632 88.8348 81.0296C87.2817 81.1085 85.3162 81.3658 82.2872 81.3991C77.722 81.4491 74.3347 81.4343 73.2028 81.2329C71.7211 80.9694 70.2775 80.9632 68.8163 80.7961C67.0593 80.5951 66.1004 80.5605 63.6297 80.2263C62.2254 80.0363 59.4965 79.9565 57.1251 79.7894C54.3498 79.5938 53.1574 79.5538 52.1095 79.3203C51.1792 79.1129 49.936 78.3499 49.0071 77.61C48.1972 76.9648 47.2479 76.6707 46.175 76.5006C44.9165 76.3011 43.7293 75.9983 42.6546 75.6963C41.7597 75.4448 40.5115 74.8587 39.0762 74.3212C37.9095 73.8842 37.1648 72.7125 36.5089 72.0401C35.6951 71.2058 34.3693 70.1636 32.9313 69.6231C31.4609 69.0703 29.9488 68.2832 28.5475 67.6772C27.4492 67.2022 26.8437 66.5356 26.6048 66.2014C26.3445 65.8374 27.9032 61.9392 29.8709 56.2384C30.62 54.0683 30.7756 53.3281 31.5461 51.6893C33.5422 47.4433 35.3107 44.3265 35.7572 43.2544C36.3537 41.8223 36.6243 40.769 36.7147 39.6606C36.7669 39.0203 36.9232 38.4174 37.1603 38.0147C37.2794 37.8124 37.6337 37.8778 38.1402 38.9409C38.6466 40.0039 39.3554 42.13 40.0453 45.7167C40.7352 49.3035 41.3849 54.2865 41.7195 57.1857C42.2766 62.0115 42.2332 63.7773 42.2332 63.4864C42.2332 62.664 42.2332 60.4715 42.4104 58.2789C42.5875 56.0864 42.9419 53.9603 43.9808 49.9417C45.0197 45.9231 46.7324 40.0764 47.7624 36.7987C48.9743 32.942 49.51 32.1761 49.7776 31.8398C49.9986 31.5621 50.9955 33.9659 52.3646 38.1808C53.0985 40.4404 53.6156 43.0601 54.097 46.5211C54.5784 49.982 54.9328 54.2341 55.1448 56.5908C55.3569 58.9474 55.416 59.2796 55.6531 59.1185C55.8903 58.9574 56.3037 58.293 58.3475 51.3732C60.3913 44.4534 64.053 31.2982 65.9689 24.3553C67.8847 17.4123 67.9438 17.0801 68.3581 23.2207C68.7724 29.3614 69.5402 41.985 70.0538 49.1193C70.5675 56.2535 70.8037 57.5159 71.0435 58.5648C71.2833 59.6138 71.5196 60.4111 71.7594 58.3303C71.9992 56.2495 72.2354 51.2665 72.8296 47.2046C73.4238 43.1427 74.3687 40.1529 75.0622 39.1442C75.7557 38.1355 76.1692 39.1986 76.9727 43.8987C77.7763 48.5988 78.9575 56.9038 79.6841 61.5144C80.4107 66.1249 80.6469 66.7893 80.7982 67.2644C80.9494 67.7396 81.0085 68.0054 82.0724 61.3654C83.1364 54.7254 85.2035 41.1716 86.3274 33.9568C87.4513 26.7421 87.5695 26.277 87.6894 26.2035C87.8093 26.13 87.9274 26.4622 88.7855 31.3838C89.6437 36.3054 91.2383 45.8063 92.4437 51.8302C93.649 57.8541 94.4168 60.1131 95.019 61.0775C95.6212 62.0419 96.0347 61.6432 96.9563 58.0162C97.878 54.3892 99.2955 47.5458 100.144 44.0205C100.992 40.4952 101.228 40.4952 101.468 40.8606C102.112 41.8421 102.837 46.1647 103.94 51.0672C104.274 52.5549 104.629 51.8504 105.252 48.319C105.876 44.7876 106.88 38.4093 107.515 34.6585C108.311 29.9604 108.808 28.6205 109.165 28.249C109.298 28.1104 109.522 28.7413 110.056 32.7348C110.59 36.7282 111.476 44.2359 112.021 48.5022C112.566 52.7684 112.743 53.5657 112.893 54.0761C113.044 54.5865 113.162 54.7858 113.37 54.4566C114.052 53.381 114.592 50.6464 115.809 46.5674C117.429 41.1371 119.365 37.8818 119.99 37.3775C120.224 37.1894 120.439 37.4711 120.619 37.9724C121.071 39.2329 121.394 42.8165 121.841 46.8442C121.987 48.1589 122.228 47.9485 122.94 46.3509C124.965 41.8039 126.287 38.4838 126.555 38.3147C127.913 37.4566 128.136 43.032 128.523 45.1117C128.666 45.8821 128.968 45.9956 129.267 45.8979C131.35 45.2175 133.256 41.2461 134.987 39.6989C135.461 39.2754 135.418 40.1448 135.121 40.92C134.49 42.5683 133.629 43.646 132.976 44.7473C130.592 48.7651 128.385 51.2262 126.476 52.6356C123.508 54.8269 122.415 55.7925 121.254 56.4307C118.878 57.7372 118.062 58.5467 116.101 59.4809C112.413 61.2386 109.352 62.5714 107.454 63.4401C106.113 64.0537 103.902 64.7075 101.123 65.4494C98.3433 66.1913 95.036 66.9222 90.5269 67.5312C86.0178 68.1402 80.4071 68.6053 76.8967 68.6788C72.1412 68.7784 70.5728 67.9449 69.9187 67.6107C67.5537 66.4024 64.4897 66.0645 63.7148 65.9648C61.7106 65.7071 63.7094 58.2326 63.917 55.8368C64.1001 53.7235 65.5563 51.5765 67.3111 49.3619C67.9739 48.5254 69.1894 47.7492 70.6784 46.7435C71.7556 46.016 73.8945 44.8681 76.6059 42.9252C77.7558 42.1013 78.3132 41.381 79.8577 40.1086C83.8065 36.8554 86.6746 34.7934 87.3574 34.1914C88.3617 33.3059 91.249 31.4513 95.445 28.5702C101.329 24.5296 102.778 24.9281 104.415 24.624C106.72 24.1958 108.45 24.8556 108.807 25.3247C109.11 25.7226 109.524 26.13 109.792 27.0652C110.194 28.4644 109.765 30.4184 109.055 32.5928C108.097 35.5238 105.654 37.0664 102.544 39.0355C100.083 40.4066 95.8306 42.5326 91.8387 44.1262C87.8469 45.7198 84.2442 46.7164 80.3534 47.9445" stroke="#FFE500" stroke-width="20" stroke-linecap="round"/>
<path d="M132.111 40.7323C129.348 37.0949 125.399 33.868 120.529 31.1632H120.535C110.824 25.7537 97.5066 22.4431 82.7906 22.4336L82.7492 22.4364V22.4336C73.0849 22.4364 64.015 23.8635 56.1748 26.3757C48.3345 28.8879 41.7356 32.4692 36.982 36.8218L36.9901 36.8155C33.815 39.7192 31.4798 42.9588 30.1838 46.4813C29.4428 48.4804 29.0534 50.588 29.0562 52.7236C29.0562 54.4804 30.322 55.9071 31.886 55.9071C33.4504 55.9071 34.7159 54.4804 34.7159 52.7236C34.7187 51.4397 34.9345 50.2182 35.4123 48.9122C36.2386 46.649 37.9272 44.1558 40.5553 41.7617L40.5634 41.7554C44.4767 38.1491 50.4515 34.8164 57.7251 32.5004C64.9988 30.1655 73.5824 28.8006 82.7492 28.8038H82.8983C96.8018 28.807 109.362 32.0185 118.017 36.8684L118.026 36.8715C122.37 39.2779 125.722 42.1066 127.809 44.8674C128.859 46.2512 129.605 47.6097 130.083 48.9122C130.68 50.5383 132.333 51.3095 133.778 50.6377C135.224 49.9664 135.909 48.107 135.312 46.4813C134.574 44.4724 133.496 42.5479 132.111 40.7323Z" fill="black"/>
<path d="M132.111 40.7323C129.348 37.0949 125.399 33.868 120.529 31.1632H120.535C110.824 25.7537 97.5066 22.4431 82.7906 22.4336L82.7492 22.4364V22.4336C73.0849 22.4364 64.015 23.8635 56.1748 26.3757C48.3345 28.8879 41.7356 32.4692 36.982 36.8218L36.9901 36.8155C33.815 39.7192 31.4798 42.9588 30.1838 46.4813C29.4428 48.4804 29.0534 50.588 29.0562 52.7236C29.0562 54.4804 30.322 55.9071 31.886 55.9071C33.4504 55.9071 34.7159 54.4804 34.7159 52.7236C34.7187 51.4397 34.9345 50.2182 35.4123 48.9122C36.2386 46.649 37.9272 44.1558 40.5553 41.7617L40.5634 41.7554C44.4767 38.1491 50.4515 34.8164 57.7251 32.5004C64.9988 30.1655 73.5824 28.8006 82.7492 28.8038H82.8983C96.8018 28.807 109.362 32.0185 118.017 36.8684L118.026 36.8715C122.37 39.2779 125.722 42.1066 127.809 44.8674C128.859 46.2512 129.605 47.6097 130.083 48.9122C130.68 50.5383 132.333 51.3095 133.778 50.6377C135.224 49.9664 135.909 48.107 135.312 46.4813C134.574 44.4724 133.496 42.5479 132.111 40.7323Z" fill="black" fill-opacity="0.2"/>
<path d="M163.448 38.7864C162.254 35.5468 160.621 32.5346 158.65 29.7521C156.68 26.9727 154.375 24.4171 151.81 22.0668L151.653 21.9239L151.805 22.0668C144.1 15.0221 133.96 9.63739 122.215 5.85711H122.213C110.457 2.09853 97.045 0 82.7851 0C71.9189 0 61.5498 1.21878 52.0269 3.46019C42.5037 5.702 33.8263 8.96604 26.3425 13.1256L26.3369 13.1288C18.8616 17.301 12.5054 22.381 7.78797 28.5767L7.87357 28.4583L7.78516 28.5767C5.43067 31.6797 3.48526 35.0839 2.12259 38.7864C0.757471 42.4921 -0.00244995 46.4871 5.93411e-06 50.6001V82.914C-0.00244995 87.0306 0.757471 91.0284 2.12259 94.734C3.3165 97.9736 4.95002 100.983 6.92034 103.765C8.89347 106.548 11.1953 109.1 13.7596 111.45L13.7652 111.454C21.4701 118.492 31.6065 123.889 43.3516 127.663L43.4148 127.679C55.1581 131.425 68.5473 133.521 82.7851 133.524H82.7879C93.6513 133.521 104.02 132.302 113.543 130.061C123.067 127.819 131.744 124.552 139.228 120.395L139.233 120.389C146.708 116.216 153.062 111.134 157.782 104.944L157.785 104.938C160.139 101.841 162.082 98.4405 163.444 94.7344L163.359 94.9614L163.447 94.7344C164.81 91.0284 165.57 87.0306 165.57 82.9144V50.6005C165.57 46.4871 164.81 42.4921 163.448 38.7864ZM18.5244 99.7426C17.654 98.8194 16.8414 97.8805 16.1176 96.932C14.4013 94.6689 13.1134 92.3529 12.2538 90.0211C11.3943 87.6834 10.9634 85.3299 10.9634 82.9144V68.2653C12.6408 70.594 14.6223 72.792 16.8635 74.8503C17.4028 75.3381 17.9553 75.8204 18.5244 76.2991V99.7426ZM34.3982 111C33.3067 110.465 32.2317 109.918 31.2006 109.34C28.7991 108.003 26.5881 106.576 24.5711 105.087V80.7449C27.5806 82.6879 30.8691 84.4691 34.3982 86.0735V111ZM54.0551 117.936C49.0753 116.751 44.4021 115.268 40.0937 113.537H40.4502V88.5572C41.8346 89.0731 43.2552 89.5613 44.7031 90.0278C47.6989 90.9853 50.8274 91.8244 54.0551 92.5554V117.936ZM79.7591 121.153C72.911 120.998 66.3282 120.295 60.1046 119.164V93.7458C66.364 94.8335 72.9468 95.4709 79.7591 95.6205V121.153ZM106.223 119.011C99.7781 120.221 92.9412 120.979 85.8111 121.135V95.6355C92.8967 95.48 99.7423 94.7869 106.223 93.6301V119.011ZM125.88 113.381C123.746 114.252 121.525 115.06 119.211 115.8C116.978 116.515 114.652 117.152 112.269 117.737V92.3869C117.059 91.2739 121.613 89.8873 125.88 88.2675V113.381ZM141.756 104.508C138.893 106.716 135.599 108.768 131.926 110.633V85.7183C133.695 84.8942 135.411 84.0298 137.05 83.1193C138.689 82.202 140.256 81.2414 141.756 80.2464V104.508ZM154.607 82.914C154.607 85.3295 154.176 87.6834 153.314 90.0207C152.208 93.0424 150.354 96.0491 147.803 98.9311V75.9439H147.444C149.953 73.7893 152.178 71.4919 154.049 69.033C154.239 68.7812 154.422 68.5262 154.606 68.2713V82.914H154.607ZM153.314 57.7012C151.821 61.7799 148.975 65.8278 144.885 69.5741C138.763 75.1948 129.884 80.0699 119.211 83.48C108.542 86.9 96.0834 88.8742 82.7854 88.8742C62.5258 88.8836 44.2007 84.2729 31.201 77.0198C24.7013 73.4045 19.5499 69.1392 16.1176 64.6094C14.4013 62.349 13.1134 60.033 12.2538 57.7016C11.3943 55.3635 10.9634 53.0132 10.9634 50.6009C10.9634 48.1886 11.3943 45.8382 12.2538 43.5001C13.7519 39.4183 16.5927 35.3704 20.6856 31.6304C26.8099 26.0061 35.6861 21.1286 46.3591 17.7182C57.0292 14.3018 69.49 12.3303 82.7854 12.3303C103.045 12.3177 121.367 16.9316 134.367 24.1815C140.87 27.794 146.023 32.0657 149.45 36.5888C151.169 38.8492 152.457 41.1652 153.314 43.4997C154.176 45.8378 154.607 48.1878 154.607 50.6005C154.607 53.0132 154.176 55.3631 153.314 57.7012Z" fill="black"/>
<path d="M163.448 38.7864C162.254 35.5468 160.621 32.5346 158.65 29.7521C156.68 26.9727 154.375 24.4171 151.81 22.0668L151.653 21.9239L151.805 22.0668C144.1 15.0221 133.96 9.63739 122.215 5.85711H122.213C110.457 2.09853 97.045 0 82.7851 0C71.9189 0 61.5498 1.21878 52.0269 3.46019C42.5037 5.702 33.8263 8.96604 26.3425 13.1256L26.3369 13.1288C18.8616 17.301 12.5054 22.381 7.78797 28.5767L7.87357 28.4583L7.78516 28.5767C5.43067 31.6797 3.48526 35.0839 2.12259 38.7864C0.757471 42.4921 -0.00244995 46.4871 5.93411e-06 50.6001V82.914C-0.00244995 87.0306 0.757471 91.0284 2.12259 94.734C3.3165 97.9736 4.95002 100.983 6.92034 103.765C8.89347 106.548 11.1953 109.1 13.7596 111.45L13.7652 111.454C21.4701 118.492 31.6065 123.889 43.3516 127.663L43.4148 127.679C55.1581 131.425 68.5473 133.521 82.7851 133.524H82.7879C93.6513 133.521 104.02 132.302 113.543 130.061C123.067 127.819 131.744 124.552 139.228 120.395L139.233 120.389C146.708 116.216 153.062 111.134 157.782 104.944L157.785 104.938C160.139 101.841 162.082 98.4405 163.444 94.7344L163.359 94.9614L163.447 94.7344C164.81 91.0284 165.57 87.0306 165.57 82.9144V50.6005C165.57 46.4871 164.81 42.4921 163.448 38.7864ZM18.5244 99.7426C17.654 98.8194 16.8414 97.8805 16.1176 96.932C14.4013 94.6689 13.1134 92.3529 12.2538 90.0211C11.3943 87.6834 10.9634 85.3299 10.9634 82.9144V68.2653C12.6408 70.594 14.6223 72.792 16.8635 74.8503C17.4028 75.3381 17.9553 75.8204 18.5244 76.2991V99.7426ZM34.3982 111C33.3067 110.465 32.2317 109.918 31.2006 109.34C28.7991 108.003 26.5881 106.576 24.5711 105.087V80.7449C27.5806 82.6879 30.8691 84.4691 34.3982 86.0735V111ZM54.0551 117.936C49.0753 116.751 44.4021 115.268 40.0937 113.537H40.4502V88.5572C41.8346 89.0731 43.2552 89.5613 44.7031 90.0278C47.6989 90.9853 50.8274 91.8244 54.0551 92.5554V117.936ZM79.7591 121.153C72.911 120.998 66.3282 120.295 60.1046 119.164V93.7458C66.364 94.8335 72.9468 95.4709 79.7591 95.6205V121.153ZM106.223 119.011C99.7781 120.221 92.9412 120.979 85.8111 121.135V95.6355C92.8967 95.48 99.7423 94.7869 106.223 93.6301V119.011ZM125.88 113.381C123.746 114.252 121.525 115.06 119.211 115.8C116.978 116.515 114.652 117.152 112.269 117.737V92.3869C117.059 91.2739 121.613 89.8873 125.88 88.2675V113.381ZM141.756 104.508C138.893 106.716 135.599 108.768 131.926 110.633V85.7183C133.695 84.8942 135.411 84.0298 137.05 83.1193C138.689 82.202 140.256 81.2414 141.756 80.2464V104.508ZM154.607 82.914C154.607 85.3295 154.176 87.6834 153.314 90.0207C152.208 93.0424 150.354 96.0491 147.803 98.9311V75.9439H147.444C149.953 73.7893 152.178 71.4919 154.049 69.033C154.239 68.7812 154.422 68.5262 154.606 68.2713V82.914H154.607ZM153.314 57.7012C151.821 61.7799 148.975 65.8278 144.885 69.5741C138.763 75.1948 129.884 80.0699 119.211 83.48C108.542 86.9 96.0834 88.8742 82.7854 88.8742C62.5258 88.8836 44.2007 84.2729 31.201 77.0198C24.7013 73.4045 19.5499 69.1392 16.1176 64.6094C14.4013 62.349 13.1134 60.033 12.2538 57.7016C11.3943 55.3635 10.9634 53.0132 10.9634 50.6009C10.9634 48.1886 11.3943 45.8382 12.2538 43.5001C13.7519 39.4183 16.5927 35.3704 20.6856 31.6304C26.8099 26.0061 35.6861 21.1286 46.3591 17.7182C57.0292 14.3018 69.49 12.3303 82.7854 12.3303C103.045 12.3177 121.367 16.9316 134.367 24.1815C140.87 27.794 146.023 32.0657 149.45 36.5888C151.169 38.8492 152.457 41.1652 153.314 43.4997C154.176 45.8378 154.607 48.1878 154.607 50.6005C154.607 53.0132 154.176 55.3631 153.314 57.7012Z" fill="black" fill-opacity="0.2"/>
</svg>
