<svg width="88" height="24" viewBox="0 0 88 24" fill="none" xmlns="http://www.w3.org/2000/svg">
<path d="M2.3098 22C1.4342 13.4044 1.82566 0.151849 11.4987 5.26112C21.1716 10.3704 25.938 20.8342 14.1241 20.1913C2.31013 19.5484 22 3 22 3" stroke="#7C3AED" stroke-width="4"/>
<path d="M34.7314 2.78951C25.9095 -1.82931 20.7049 15.2095 26.351 17.9215C31.9971 20.6336 35.1885 17.5243 37.1258 16.2864C39.0632 15.0486 43.5534 7.40832 34.7314 2.78951Z" stroke="#7C3AED" stroke-width="4"/>
<path d="M35 4.00217C37.5 -0.502713 44 4.00217 44 4.00217M57.5 4.00217C55.5 7.49826 44 4.00217 44 4.00217M44 4.00217C44 4.00217 50 18.0022 45 22.0022" stroke="#7C3AED" stroke-width="4"/>
<path d="M53.5366 12.0089C55.4345 12.3722 63.4066 14.92 67.2033 12.0088C71 9.09761 63.4059 -2.18608 56.573 5.82108C49.74 13.8282 51.2584 19.6527 56.5732 21.4727C61.888 23.2926 66.5709 19.8949 71 18.9242" stroke="#7C3AED" stroke-width="4"/>
<path d="M85.9046 8.26495C87.1433 1.29184 75.9884 0.658331 71.857 3.8276C67.7255 6.99687 68.1386 9.21578 72.6833 12.3853C77.228 15.5549 79.7069 5.41233 84.2517 12.3853C88.7965 19.3583 77.2274 23.4786 72.6833 19.3583" stroke="#7C3AED" stroke-width="4"/>
</svg>
